<svg id="_x33_0" enable-background="new 0 0 64 64" height="512" viewBox="0 0 64 64" width="512" xmlns="http://www.w3.org/2000/svg"><g><path d="m62.912 42.118c-.323-1.56-1.596-2.798-3.167-3.083-1.89-.337-3.717.646-4.444 2.404-.13.316-.484.528-.889.528l-3.129.023 1.607-6.43c.073-.29.11-.589.11-.889 0-2.025-1.647-3.671-3.671-3.671h-14.915l4.906-4.906-.52-.694c-3.945-5.259-10.225-8.4-16.8-8.4-3.631 0-7.048.927-10.03 2.556l-1.555-1.556c-1.289-1.289-3.541-1.289-4.829 0l-3.586 3.586c-.645.645-1 1.503-1 2.414s.355 1.769 1 2.414l1.556 1.556c-1.629 2.982-2.556 6.4-2.556 10.03 0 6.574 3.14 12.854 8.4 16.8l.694.521 7.482-7.482c.589 1.93 1.617 3.684 3.027 5.162h-1.603c-1.103 0-2 .897-2 2v2c0 1.103.897 2 2 2h.219l.621 2.484c.223.892 1.021 1.515 1.941 1.515h28.438c.919 0 1.717-.623 1.94-1.516l.622-2.484h.219c1.103 0 2-.897 2-2v-2c0-1.103-.897-2-2-2h-9.374c.655-.369 1.288-.778 1.884-1.242l4.836-3.76 4.073-.03c.397 0 .752.212.882.527.629 1.526 2.088 2.473 3.697 2.473.246 0 .496-.022.746-.067 1.57-.285 2.843-1.524 3.167-3.084.208-1.002.044-2.004-.449-2.849.495-.846.658-1.848.45-2.85zm-59.497-17.118c-.268-.268-.415-.622-.415-1s.147-.732.414-1l3.586-3.586c.533-.535 1.465-.535 2 0l1.215 1.216c-2.195 1.494-4.092 3.391-5.586 5.586zm6.505 27.665c-4.348-3.587-6.92-9.006-6.92-14.665 0-10.477 8.523-19 19-19 5.66 0 11.079 2.572 14.666 6.921zm12.308-.852c-1.549-1.549-2.577-3.486-3.004-5.623l13.19-13.19h16.915c.921 0 1.671.75 1.671 1.671 0 .137-.017.273-.05.406l-1.673 6.689-8.989-2.452c-.765-.209-1.556-.314-2.351-.314-4.928 0-8.937 4.01-8.937 8.938 0 .129.018.254.025.382-.198.22-.362.47-.508.733-.169-.03-.34-.053-.517-.053-1.654 0-3 1.346-3 3 0 .352.072.686.184 1h-1.77zm9.772 1.187c-.389 0-.761-.122-1.082-.329.05-.217.082-.44.082-.671 0-.753-.289-1.434-.749-1.962.344-.628 1.001-1.038 1.749-1.038 1.103 0 2 .897 2 2s-.897 2-2 2zm-5-1c0-.552.449-1 1-1s1 .448 1 1-.449 1-1 1-1-.448-1-1zm23.219 9h-28.438l-.5-2h29.438zm2.781-6 .001 2h-34.001v-2zm-4-8.489-4.717 3.669c-2.338 1.818-5.258 2.82-8.22 2.82h-.619c.344-.591.556-1.268.556-2 0-2.206-1.794-4-4-4-.328 0-.642.052-.948.126.403-3.444 3.335-6.126 6.885-6.126.617 0 1.231.082 1.825.244l9.238 2.52zm11.954.899c-.158.758-.801 1.384-1.566 1.521-.957.172-1.875-.319-2.238-1.199-.442-1.072-1.514-1.765-2.738-1.765l-3.412.026v-2l3.419-.025c1.217 0 2.289-.693 2.731-1.766.363-.879 1.279-1.374 2.238-1.198.765.138 1.408.764 1.565 1.521.135.651-.034 1.297-.465 1.771l-.608.672.608.672c.431.474.601 1.12.466 1.77z"/><path d="m39.293 19.707 1.414-1.414-1.758-1.759c-.612-.611-.949-1.425-.949-2.292 0-1.788 1.455-3.242 3.243-3.242h3.757v-2h-3.757c-2.891 0-5.243 2.352-5.243 5.242 0 1.401.545 2.718 1.536 3.707z"/><path d="m43 17c1.103 0 2 .897 2 2s-.897 2-2 2v2c2.206 0 4-1.794 4-4s-1.794-4-4-4z"/><path d="m53 12.605c0-1.923.955-3.707 2.555-4.773l-1.109-1.664c-2.158 1.437-3.446 3.845-3.446 6.437v.395h2z"/><path d="m49.292 9.707 1.415-1.414-.965-.965c-.478-.479-.742-1.116-.742-1.793 0-1.397 1.138-2.535 2.536-2.535h5.464c1.103 0 2 .897 2 2h2c0-2.206-1.794-4-4-4h-5.464c-2.501 0-4.536 2.034-4.536 4.535 0 1.211.472 2.351 1.328 3.207z"/><path d="m59.315 9.051-.631 1.898.627.208c1.011.337 1.689 1.279 1.689 2.343s-.678 2.006-1.688 2.343l-6.628 2.209.632 1.896 3.637-1.212c.022.182.047.363.047.548 0 2.194-1.638 4.082-3.811 4.393l-6.361.909c-2.182.311-3.828 2.209-3.828 4.414h2c0-1.216.908-2.262 2.111-2.434l6.361-.909c3.151-.45 5.527-3.19 5.527-6.373 0-.403-.043-.8-.117-1.191l1.062-.354c1.828-.609 3.056-2.313 3.056-4.239s-1.228-3.63-3.056-4.24z"/></g></svg>