<svg id="Layer_1_1_" enable-background="new 0 0 96 96" height="512" viewBox="0 0 96 96" width="512" xmlns="http://www.w3.org/2000/svg"><path d="m95 36c-1.13 0-2.162.391-3 1.026v-2.026c0-5.024-3.39-9.263-8-10.574v-1.012l4.706-4.706c.092-.092.165-.201.216-.323.051-.121.078-.252.078-.385v-12c0-2.206-1.794-4-4-4h-17c-.553 0-1 .448-1 1v2c0 1.86 1.276 3.428 3 3.874v1.85l-2.857 4.762c-.186.309-.19.694-.013 1.007s.51.507.87.507h2v3c0 2.206 1.794 4 4 4h2v.764c-4.091 1.605-7 5.583-7 10.236v8h-6v-3c0-.552-.447-1-1-1h-8c-.279 0-.547.117-.736.323-.188.206-.283.481-.26.76l.91 10.917h-4.598l4.648-16.732c.147-.532-.164-1.083-.696-1.231-.531-.146-1.083.163-1.231.696l-4.797 17.267h-6.24v-7c0-.552-.447-1-1-1h-8v-8c0-4.962 4.037-9 9-9h1.356l4.733 10.414c.163.357.518.586.911.586s.748-.229.91-.586l4.734-10.414h1.356c4.963 0 9 4.038 9 9v5c0 .552.447 1 1 1s1-.448 1-1v-5c0-6.065-4.935-11-11-11h-3v-1.841c3.527-1.547 6-5.068 6-9.159v-6c0-2.757-2.243-5-5-5h-14c-.553 0-1 .448-1 1v6.808l-1.929 4.821c-.123.308-.085.657.101.932.186.274.496.439.828.439h1.465c.881 2.827 2.927 5.042 5.535 6.173v1.827h-3c-6.065 0-11 4.935-11 11v8h-3v-8c0-4.653-2.909-8.631-7-10.236v-.764h5c.553 0 1-.448 1-1v-6h2c.36 0 .692-.194.87-.507s.173-.698-.013-1.007l-2.857-4.763v-1.85c1.724-.445 3-2.013 3-3.873v-2c0-.552-.447-1-1-1h-17c-2.206 0-4 1.794-4 4v12c0 .265.105.52.293.707l4.707 4.707v1.012c-4.61 1.311-8 5.55-8 10.574v2.026c-.838-.635-1.87-1.026-3-1.026-.553 0-1 .448-1 1v18c0 7.844 6.055 14.29 13.736 14.936l-5.706 22.821c-.135.536.191 1.079.728 1.213.081.021.163.03.243.03.448 0 .855-.303.969-.757l5.81-23.243h10.22v23c0 .552.447 1 1 1s1-.448 1-1v-23h5v23c0 .552.447 1 1 1h28c.553 0 1-.448 1-1v-23h5v23c0 .552.447 1 1 1s1-.448 1-1v-23h7c.553 0 1-.448 1-1s-.447-1-1-1h-13.816c.414-1.161 1.514-2 2.816-2h15c6.065 0 11-4.935 11-11v-14c0-1.304.836-2.416 2-2.829v16.829c0 7.168-5.832 13-13 13-.308 0-.599.142-.788.385s-.257.559-.182.858l6 24c.114.454.521.757.969.757.08 0 .162-.009.243-.03.536-.134.862-.677.728-1.213l-5.702-22.811c7.679-.645 13.732-7.102 13.732-14.946v-18c0-.552-.447-1-1-1zm-42-32c1.654 0 3 1.346 3 3v5c-1.654 0-3-1.346-3-3v-1c0-.552-.447-1-1-1h-12v-3zm-12.794 10.778c-.103-.455-.509-.778-.976-.778h-.754l1.452-3.628c.048-.119.072-.245.072-.372v-1h11c0 2.733 2.207 4.955 4.932 4.993-.492 3.943-3.858 7.007-7.932 7.007-1.215 0-2.371-.272-3.41-.758 1.438-.876 2.41-2.438 2.41-4.242 0-.552-.447-1-1-1s-1 .448-1 1c0 1.439-1.019 2.643-2.374 2.932-1.178-1.07-2.043-2.497-2.42-4.154zm5.794 8.016c.648.13 1.315.206 2 .206s1.354-.07 2-.202v2.202c0 .552.447 1 1 1h.447l-3.447 7.583-3.447-7.583h2.447c.553 0 1-.448 1-1s-.447-1-1-1h-1zm23-17.794v-1h16c1.103 0 2 .897 2 2v10.858c-1.721-.447-3-2-3-3.858v-5c0-.552-.447-1-1-1h-12c-1.103 0-2-.897-2-2zm8 17h-3c-1.103 0-2-.897-2-2v-4c0-.552-.447-1-1-1h-1.233l2.091-3.485c.093-.156.142-.334.142-.515v-2h10v4c0 2.589 1.651 4.793 3.953 5.633l-3.66 3.66c-.188.187-.293.442-.293.707v1.051c-.33-.03-.662-.051-1-.051h-1c-.684 0-1.35.071-2 .191v-1.191c0-.552-.447-1-1-1zm-7 23c.553 0 1-.448 1-1v-9c0-4.962 4.037-9 9-9h1c4.963 0 9 4.038 9 9v20h-15v-2.101c2.279-.465 4-2.484 4-4.899v-12c0-.552-.447-1-1-1s-1 .448-1 1v12c0 1.654-1.346 3-3 3h-10v-6zm-11 6v-6h3v6zm-3.913-10h5.913v2h-3c-.553 0-1 .448-1 1v7h-1.08zm17.913 12v2h-51v-2zm-35.826 4h9.826v30.553c-.828-.746-1.854-1.276-3-1.47v-17.083c0-5.096-2.745-9.551-6.826-12zm11.826 0h9.826c-4.081 2.449-6.826 6.904-6.826 12v17.083c-1.146.193-2.172.724-3 1.47zm-10-6h-3v-6h3zm-12.767-36h-1.233c-.553 0-1 .448-1 1v1h-8c-1.103 0-2-.897-2-2v-6h10v2c0 .181.049.359.143.515zm-12.526 7.293-4.707-4.707v-11.586c0-1.103.897-2 2-2h16v1c0 1.103-.897 2-2 2h-12c-.553 0-1 .448-1 1v7c0 2.206 1.794 4 4 4h8v3h-5c-.553 0-1 .448-1 1v1.191c-.65-.12-1.316-.191-2-.191h-1c-.338 0-.67.021-1 .051v-1.051c0-.265-.105-.52-.293-.707zm-11.707 32.707v-16.829c1.164.413 2 1.525 2 2.829v14c0 6.065 4.935 11 11 11h15c1.302 0 2.402.839 2.816 2h-17.816c-7.168 0-13-5.832-13-13zm33 37v-23c0-2.757-2.243-5-5-5h-15c-4.275 0-7.855-2.998-8.768-7h10.768c.553 0 1-.448 1-1s-.447-1-1-1h-11v-20c0-4.962 4.037-9 9-9h1c4.963 0 9 4.038 9 9v9c0 .552.447 1 1 1h8v6h-5-7c-1.654 0-3-1.346-3-3v-12c0-.552-.447-1-1-1s-1 .448-1 1v12c0 2.045 1.237 3.802 3 4.576v3.424c0 .552.447 1 1 1h9c6.617 0 12 5.383 12 12v18c0 .552.447 1 1 1 2.206 0 4 1.794 4 4zm46-28h-15c-2.757 0-5 2.243-5 5v23h-12c0-2.206 1.794-4 4-4 .553 0 1-.448 1-1v-18c0-6.617 5.383-12 12-12h23.768c-.913 4.002-4.493 7-8.768 7z"/><circle cx="35" cy="40" r="1"/><circle cx="39" cy="40" r="1"/><circle cx="43" cy="40" r="1"/></svg>